<svg xmlns="http://www.w3.org/2000/svg" width="1000" height="560" viewBox="0 0 1000 560" role="img" aria-labelledby="title desc">
  <title id="title">Нохой муурны нарийн шүдтэй сам</title>
  <desc id="desc">Үс арчилгааны нарийн шүдтэй самны зураг</desc>
  <defs>
    <linearGradient id="bg" x1="0" y1="0" x2="1" y2="1">
      <stop offset="0%" stop-color="#f8f0e2" />
      <stop offset="100%" stop-color="#f1dfc5" />
    </linearGradient>
    <linearGradient id="combBody" x1="0" y1="0" x2="0" y2="1">
      <stop offset="0%" stop-color="#c3986b" />
      <stop offset="100%" stop-color="#9a734f" />
    </linearGradient>
  </defs>

  <rect width="1000" height="560" fill="url(#bg)" />

  <g opacity="0.22" fill="#8f7a60">
    <circle cx="90" cy="110" r="30" />
    <circle cx="920" cy="140" r="38" />
    <circle cx="860" cy="470" r="26" />
  </g>

  <g transform="translate(120 120)">
    <rect x="80" y="120" width="620" height="170" rx="48" fill="url(#combBody)" stroke="#6f5137" stroke-width="4" />
    <rect x="40" y="146" width="140" height="118" rx="40" fill="#8d6544" stroke="#6f5137" stroke-width="4" />

    <g stroke="#d8b28d" stroke-width="6" stroke-linecap="round">
      <line x1="222" y1="118" x2="222" y2="42" />
      <line x1="252" y1="118" x2="252" y2="34" />
      <line x1="282" y1="118" x2="282" y2="44" />
      <line x1="312" y1="118" x2="312" y2="36" />
      <line x1="342" y1="118" x2="342" y2="46" />
      <line x1="372" y1="118" x2="372" y2="36" />
      <line x1="402" y1="118" x2="402" y2="44" />
      <line x1="432" y1="118" x2="432" y2="34" />
      <line x1="462" y1="118" x2="462" y2="44" />
      <line x1="492" y1="118" x2="492" y2="36" />
      <line x1="522" y1="118" x2="522" y2="46" />
      <line x1="552" y1="118" x2="552" y2="36" />
      <line x1="582" y1="118" x2="582" y2="44" />
      <line x1="612" y1="118" x2="612" y2="34" />
    </g>
  </g>

  <g stroke="#b99671" stroke-width="4" fill="none" opacity="0.9">
    <path d="M260 438c22-14 42-14 62 0" />
    <path d="M338 444c18-12 34-12 52 0" />
    <path d="M404 438c22-14 42-14 62 0" />
    <path d="M480 444c18-12 34-12 52 0" />
    <path d="M546 438c22-14 42-14 62 0" />
  </g>

  <text x="500" y="514" text-anchor="middle" font-family="Segoe UI, Arial, sans-serif" font-size="34" fill="#5d4a35" font-weight="700">НАРИЙН ШҮДТЭЙ АРЧИЛГААНЫ САМ</text>
</svg>
